# xmcd
#
# Track frame offsets: 
#        150
#        18502
#        35787
#        53700
#        70335
#        89460
#        107245
#        127067
#        143085
#        159237
#        173712
#        190185
#        206455
#        222632
#        240422
#        260672
#        277735
#        294405
#        310630
#        328137
#
# Disc length: 4615 seconds
#
# Revision: 0
# Processed by: cddbd v1.5.2PL0 Copyright (c) Steve Scherf et al.
# Submitted via: ExactAudioCopyFreeDBPlugin 1.0
#
DISCID=2a120514
DTITLE=Various Artist - Hitsville USA:  The Motown Singles Collection
DTITLE=s, 1959 - 1992 [box sets]
DYEAR=1993
DGENRE=Rhythm and Blue
TTITLE0=Smokey Robinson - Quiet Storm
TTITLE1=Diana Ross - Love Hangover
TTITLE2=Marvin Gaye - I Want You
TTITLE3=Thelma Houston - Don't Leave Me This Way
TTITLE4=Marvin Gaye - Got to Give it Up, Part 1
TTITLE5=Stevie Wonder - Sir Duke
TTITLE6=The Commodores - Easy
TTITLE7=High Inergy - You Can't Turn Me Off (In the Middle of Turning 
TTITLE7=Me On)
TTITLE8=The Commodores - Brick House
TTITLE9=Rick James - You and I
TTITLE10=The Commodores - Three Times a Lady
TTITLE11=Switch - There'll Never Be
TTITLE12=Bonnie Pointer - Heaven Must Have Sent You
TTITLE13=The Commodores - Sail On
TTITLE14=Smokey Robinson - Cruisin'
TTITLE15=The Commodores - Still
TTITLE16=Billy Preston and Syreeta - With You I'm Born Again
TTITLE17=Jermaine Jackson - Let's Get Serious
TTITLE18=Teena Marie - I Need Your Lovin'
TTITLE19=Smokey Robinson - Being with You
EXTD=
EXTT0=
EXTT1=
EXTT2=
EXTT3=
EXTT4=
EXTT5=
EXTT6=
EXTT7=
EXTT8=
EXTT9=
EXTT10=
EXTT11=
EXTT12=
EXTT13=
EXTT14=
EXTT15=
EXTT16=
EXTT17=
EXTT18=
EXTT19=
PLAYORDER=
